HIERARCHY
ROOT Hips
{
  OFFSET -102.467 93.6631 130.069
  CHANNELS 6 Xposition Yposition Zposition Zrotation Xrotation Yrotation
  JOINT LeftUpLeg
  {
    OFFSET 8.64259 1.95398 -2.38835
    CHANNELS 3 Zrotation Xrotation Yrotation
    JOINT LeftLeg
    {
      OFFSET 43.7702 0 0
      CHANNELS 3 Zrotation Xrotation Yrotation
      JOINT LeftFoot
      {
        OFFSET 40.6238 0 0
        CHANNELS 3 Zrotation Xrotation Yrotation
        JOINT LeftToeBase
        {
          OFFSET 12.7242 0 0
          CHANNELS 3 Zrotation Xrotation Yrotation
          End Site
          {
            OFFSET 0 0 0
          }
        }
      }
    }
  }
  JOINT RightUpLeg
  {
    OFFSET -8.2249 1.95398 -2.59336
    CHANNELS 3 Zrotation Xrotation Yrotation
    JOINT RightLeg
    {
      OFFSET 43.5653 0 0
      CHANNELS 3 Zrotation Xrotation Yrotation
      JOINT RightFoot
      {
        OFFSET 40.6238 0 0
        CHANNELS 3 Zrotation Xrotation Yrotation
        JOINT RightToeBase
        {
          OFFSET 12.7242 0 0
          CHANNELS 3 Zrotation Xrotation Yrotation
          End Site
          {
            OFFSET 0 0 0
          }
        }
      }
    }
  }
  JOINT Spine
  {
    OFFSET 0.165834 0.87714 6.61349
    CHANNELS 3 Zrotation Xrotation Yrotation
    JOINT Spine1
    {
      OFFSET 7.38963 1.71661e-005 0
      CHANNELS 3 Zrotation Xrotation Yrotation
      JOINT Spine2
      {
        OFFSET 11.9445 1.14441e-005 0
        CHANNELS 3 Zrotation Xrotation Yrotation
        JOINT Spine3
        {
          OFFSET 14.7254 4.19617e-005 0
          CHANNELS 3 Zrotation Xrotation Yrotation
          JOINT Spine4
          {
            OFFSET 10.9679 0 0
            CHANNELS 3 Zrotation Xrotation Yrotation
            JOINT RightShoulder
            {
              OFFSET 2.46616 -1.6653 3.69651
              CHANNELS 3 Zrotation Xrotation Yrotation
              JOINT RightArm
              {
                OFFSET 13.0012 0 0
                CHANNELS 3 Zrotation Xrotation Yrotation
                JOINT RightForeArm
                {
                  OFFSET 28.7848 1.52588e-005 0
                  CHANNELS 3 Zrotation Xrotation Yrotation
                  JOINT RightHand
                  {
                    OFFSET 26.5688 1.52588e-005 0
                    CHANNELS 3 Zrotation Xrotation Yrotation
                    End Site
                    {
                      OFFSET 0 0 0
                    }
                  }
                }
              }
            }
            JOINT LeftShoulder
            {
              OFFSET 2.38034 -1.29275 -3.7523
              CHANNELS 3 Zrotation Xrotation Yrotation
              JOINT LeftArm
              {
                OFFSET 16.3182 6.10351e-005 0
                CHANNELS 3 Zrotation Xrotation Yrotation
                JOINT LeftForeArm
                {
                  OFFSET 27.0901 0 0
                  CHANNELS 3 Zrotation Xrotation Yrotation
                  JOINT LeftHand
                  {
                    OFFSET 24.5451 1.52588e-005 0
                    CHANNELS 3 Zrotation Xrotation Yrotation
                    End Site
                    {
                      OFFSET 0 0 0
                    }
                  }
                }
              }
            }
            JOINT Neck
            {
              OFFSET 5.0226 -0.0266342 0
              CHANNELS 3 Zrotation Xrotation Yrotation
              JOINT Head
              {
                OFFSET 6.69363 2.86102e-005 0
                CHANNELS 3 Zrotation Xrotation Yrotation
                End Site
                {
                  OFFSET 0 0 0
                }
              }
            }
          }
        }
      }
    }
  }
}
MOTION
Frames:	14
Frame Time:	0.0416667
16.7984 89.924 -296.83 37.8966 -36.6868 37.101 147.935 66.4257 102.528 18.86 -78.2374 79.5001 -168.107 -8.62556 -108.141 11.4276 -4.65995 70.9391 -115.429 80.0247 12.133 -74.2836 4.80405 3.18975 144.065 -24.3738 17.6384 136.69 49.9759 51.4216 -1.02009 -0.342807 -87.145 27.5297 -0.222353 6.06034 15.8447 0.0440722 6.06425 -6.58675 -2.03046 5.71558 13.4259 -2.03047 5.71558 84.7835 -77.5265 -101.968 18.3433 -31.6307 21.2389 -166.718 -40.7895 -129.794 9.54788 -1.4127 -20.5665 -76.8027 -31.7018 98.8411 -16.1561 28.1747 49.2626 129.775 -48.3274 -115.327 -53.4836 23.395 -51.3473 -19.9034 -7.00386 -46.4681 -9.66743 -10.034 28.139 
16.6334 90.2688 -297.826 38.3262 -36.9592 37.319 148.562 64.9179 101.699 7.27906 -77.2278 68.5068 -173.054 -6.02576 -107.128 11.0738 -4.52173 67.8124 -122.972 80.023 19.3933 -74.172 4.26718 3.55814 145.623 -25.3196 17.9323 138.273 48.9512 49.9813 -1.03016 -0.294643 -87.1661 27.435 -0.257198 6.02467 15.7501 0.0077025 6.03012 -6.68294 -2.05306 5.67109 13.3297 -2.05307 5.67108 84.7576 -77.3205 -102.04 18.289 -31.8952 20.9972 -166.826 -41.0059 -129.539 9.31644 -1.39584 -20.7341 -76.7613 -31.7269 98.9202 -16.2056 27.5768 49.0299 130.867 -46.6428 -116.768 -52.7418 22.9648 -51.2514 -19.5976 -7.20043 -46.1092 -10.0802 -10.1875 28.1461 
16.1635 91.2045 -300.669 39.5452 -37.755 37.9595 150.042 60.2661 99.8166 -32.155 -65.272 31.2348 170.694 -0.725509 -90.6873 7.31815 -4.80718 56.8998 -143.903 79.1305 39.4071 -73.6108 2.64227 4.65649 150.336 -28.2096 19.0755 142.77 45.4864 45.8812 -1.05794 -0.156506 -87.2293 27.1627 -0.356456 5.9167 15.4783 -0.0961716 5.92661 -6.95946 -2.11547 5.5383 13.0532 -2.11549 5.53829 84.686 -76.7283 -102.245 18.1325 -32.6376 20.31 -167.113 -41.6224 -128.767 8.64385 -1.3488 -21.2891 -76.6457 -31.8001 99.1405 -16.4268 25.9071 48.4328 133.158 -41.7224 -121.191 -50.73 21.6661 -50.6986 -18.7594 -7.77212 -45.1414 -11.1838 -10.6567 28.3088 
15.5043 91.9925 -305.286 41.3999 -39.0289 38.9914 151.64 52.856 98.1302 -55.9262 -22.565 13.1688 149.291 38.389 -65.7199 -2.2581 -5.15635 41.4779 -167.089 76.0848 60.75 -73.0736 -0.0805257 6.48697 159.309 -33.1292 21.9623 149.702 37.8438 39.4796 -1.09849 0.0581249 -87.3354 26.7397 -0.510115 5.73105 15.0561 -0.257815 5.74787 -7.38952 -2.20656 5.31502 12.6231 -2.20655 5.31502 84.5797 -75.7939 -102.565 17.8848 -33.7727 19.2399 -167.493 -42.5945 -127.431 7.56356 -1.27277 -22.3618 -76.4725 -31.9086 99.4701 -16.9574 23.3821 47.6506 135.59 -33.9475 -127.852 -47.8077 19.8751 -49.9582 -17.5283 -8.69637 -43.8023 -12.6904 -11.4787 28.9986 
14.8125 91.3956 -312.12 43.6517 -40.6891 40.3223 152.917 44.2533 96.2543 -64.6513 6.81913 12.2228 128.994 55.1567 -27.0347 -8.67798 -4.40779 32.5364 176.019 71.9123 74.4617 -73.6058 -3.19655 8.9013 175.56 -40.0749 28.2793 158.067 21.1799 31.1903 -1.1456 0.326593 -87.4848 26.2109 -0.704675 5.46275 14.5286 -0.463944 5.48837 -7.92786 -2.31189 5.00055 12.0848 -2.3119 5.00056 84.4518 -74.5642 -102.979 17.5572 -35.2146 17.8499 -167.84 -43.8787 -125.458 6.12915 -1.15665 -24.0653 -76.2614 -32.0316 99.8704 -17.9064 20.2232 46.833 137.799 -23.8695 -134.958 -44.611 18.445 -50.1639 -16.0022 -9.89603 -42.2556 -14.3324 -12.6281 30.4171 
13.9583 90.0701 -321.185 45.2494 -41.7213 40.7734 153.787 34.5708 94.9271 -67.501 16.0338 13.2332 118.421 65.2637 -9.48638 -11.1836 -3.37447 27.5169 164.657 68.002 79.8378 -71.9908 -3.72508 15.3097 -155.117 -49.0279 42.1608 164.351 -14.0613 21.4219 -1.1823 0.532734 -87.7311 25.8654 -0.879176 5.19861 14.1841 -0.649854 5.23212 -8.28132 -2.39912 4.69605 11.7313 -2.39913 4.69604 84.3198 -73.088 -103.461 17.1596 -36.8848 16.1969 -167.992 -45.4205 -122.775 4.42805 -0.97864 -26.4284 -76.0348 -32.1468 100.299 -19.3177 16.6281 46.0645 138.973 -11.3061 -140.982 -42.3105 17.8687 -51.3688 -14.2412 -11.2566 -40.5447 -15.9189 -14.0151 32.4995 
12.6817 88.7746 -332.718 73.1932 -55.8909 72.7271 158.315 -0.0163064 90.0017 -70.5654 18.1604 19.2693 120.528 72.5194 -6.82022 -12.068 -2.49644 24.24 161.606 42.2521 72.4759 -72.388 -1.05819 27.9288 -64.0821 -81.6872 109.483 148.173 -33.8202 11.6142 -1.44209 3.12222 -87.6228 20.6201 -1.97849 3.07396 8.94763 -1.84119 3.15794 -13.5903 -2.81173 2.33752 6.42233 -2.81174 2.33752 84.2018 -71.4164 -103.983 16.7004 -38.7137 14.3324 -167.749 -47.1452 -119.314 2.58476 -0.717174 -29.3847 -75.8164 -32.2349 100.713 -21.1779 12.7679 45.3685 137.357 5.60976 -144.361 -42.2265 17.4711 -50.6221 -12.3357 -12.6708 -38.711 -17.2456 -15.5357 35.1608 
11.4251 85.758 -346.432 106.041 -50.9792 107.772 163.67 -30.8591 101.074 -71.1585 15.546 24.8525 144.178 74.5416 -27.0895 -13.7394 -2.23004 22.8682 157.503 29.7447 72.8024 -78.1639 -22.196 28.9911 59.8783 12.041 -145.766 140.254 -54.9613 -2.82194 -1.79568 5.45987 -89.7197 15.9248 -3.36901 1.31625 4.25737 -3.30783 1.46337 -18.3116 -3.60856 0.241666 1.70107 -3.60857 0.241663 84.1153 -69.6041 -104.513 16.1862 -40.6413 12.3021 -166.891 -48.9514 -115.033 0.752674 -0.365676 -32.783 -75.6298 -32.2832 101.067 -23.4349 8.79091 44.721 128.913 29.4808 -140.954 -42.9359 14.4926 -42.6763 -10.4199 -14.0506 -36.8212 -18.084 -17.0725 38.3377 
10.3164 80.5204 -361.862 103.239 -50.5833 103.519 164.837 -39.7514 104.091 -65.4634 9.51972 24.9133 166.286 65.3378 -48.9861 -18.1954 -3.16254 24.2575 156.408 39.3188 68.3836 -92.4738 -39.4603 24.7394 81.2885 55.6057 -129.429 168.016 -64.653 10.7065 -2.13347 5.32101 -89.5947 16.2693 -4.00356 1.48148 4.60349 -3.9345 1.65646 -17.9808 -4.26342 0.207698 2.03181 -4.26342 0.207699 84.0755 -67.7065 -105.022 15.6166 -42.6184 10.1421 -165.215 -50.7062 -109.917 -0.914482 0.055211 -36.4234 -75.4954 -32.2873 101.323 -26.0206 4.81907 44.0689 104.823 53.2305 -120.207 -36.4464 7.68227 -29.3671 -8.64835 -15.3385 -34.9504 -18.2258 -18.4922 41.9584 
9.03077 75.2512 -377.754 103.837 -49.5096 102.774 169.472 -51.6838 112.28 -54.1591 1.94863 24.2333 169.828 43.0099 -57.7163 -24.3942 -6.52816 30.4001 156.192 41.322 66.411 -108.374 -47.292 19.3698 98.2445 60.4161 -124.063 179.813 -46.8339 20.753 -2.45564 5.41828 -89.6412 16.0833 -4.6655 1.48494 4.41967 -4.59563 1.6892 -18.1828 -4.8956 0.0108418 1.82983 -4.89561 0.0108444 84.0939 -65.7764 -105.48 14.9809 -44.6034 7.87496 -162.595 -52.2527 -104.007 -2.29437 0.500699 -40.1043 -75.427 -32.2508 101.456 -28.8679 0.950172 43.3438 67.9571 61.2306 -83.6801 -25.3006 2.95518 -19.5174 -7.16364 -16.5094 -33.167 -17.53 -19.6547 45.9182 
7.68562 70.6418 -392.858 105.447 -48.6009 102.957 -177.598 -64.4365 130.303 -35.097 -6.04516 20.1184 158.897 8.37823 -64.943 -24.9236 -12.7026 43.8691 156.01 36.0147 66.1845 -121.766 -50.8375 14.8145 111.403 52.7869 -118.281 178.203 -31.6951 21.8838 -2.74697 5.58847 -89.6866 15.7504 -5.26841 1.46752 4.08903 -5.1987 1.69852 -18.5322 -5.46519 -0.188394 1.48042 -5.46518 -0.188399 84.1789 -63.8646 -105.86 14.2581 -46.5532 5.51116 -159.034 -53.4247 -97.4299 -3.31161 0.914397 -43.6472 -75.4316 -32.1826 101.451 -31.9155 -2.73189 42.4694 45.4611 59.1414 -59.5566 -17.9448 1.22922 -14.0954 -6.07952 -17.5622 -31.5262 -15.9491 -20.4287 50.0615 
6.3333 66.9889 -406.777 107.358 -48.0243 103.378 -125.787 -72.977 -169.403 -4.76207 -15.2026 3.47982 125.052 -2.64577 -93.2723 -11.5964 -14.3974 61.5781 154.782 22.9746 68.2529 -129.586 -52.2166 12.0648 124.279 41.8595 -110.677 174.84 -22.1831 22.2052 -2.99669 5.77872 -89.7197 15.376 -5.78383 1.45294 3.71688 -5.71429 1.70685 -18.9221 -5.95219 -0.358701 1.09053 -5.95218 -0.358703 84.3371 -62.0192 -106.135 13.4172 -48.4139 3.05065 -154.72 -54.071 -90.4496 -3.9444 1.24348 -46.9084 -75.5098 -32.0947 101.307 -35.1062 -6.14854 41.369 35.4612 55.8254 -47.2017 -14.048 0.566791 -10.7951 -5.47156 -18.5089 -30.0681 -13.5402 -20.7104 54.1735 
4.95444 64.3097 -419.685 109.222 -47.8117 103.757 -106.378 -71.9483 -148.109 -0.399724 -24.5797 0.378837 98.6696 -7.85562 -108.943 6.62986 -7.18761 70.0615 153.089 5.83161 71.6174 -131.017 -51.3966 10.8313 137.901 33.3629 -103.635 171.513 -15.821 22.5397 -3.20239 5.96484 -89.7399 15.0087 -6.20607 1.44602 3.35149 -6.13639 1.71871 -19.3032 -6.3526 -0.493624 0.70945 -6.3526 -0.493632 84.5735 -60.2834 -106.283 12.4236 -50.114 0.485782 -150.009 -54.0875 -83.4564 -4.22184 1.4541 -49.7921 -75.6566 -31.9986 101.032 -38.3891 -9.22872 39.9749 30.623 52.9122 -39.8465 -11.9083 0.257954 -8.54604 -5.37659 -19.3585 -28.8203 -10.4505 -20.4478 58.0013 
3.60443 61.1343 -434.971 110.897 -47.931 104.014 -96.1196 -71.2907 -137.593 -0.319178 -31.2985 0.379316 81.7943 -1.40438 -117.06 20.6981 0.425088 67.1821 152.585 -7.40174 74.172 -133.097 -49.4307 9.62967 150.556 28.8372 -97.8583 168.603 -11.1124 22.9616 -3.36536 6.1397 -89.7498 14.6628 -6.53857 1.44533 3.00716 -6.46864 1.73239 -19.6606 -6.6692 -0.595915 0.352016 -6.66919 -0.595918 84.8933 -58.6936 -106.277 11.2519 -51.5649 -2.1876 -145.351 -53.4445 -76.9019 -4.20663 1.53812 -52.2455 -75.8648 -31.9029 100.638 -41.7173 -11.9088 38.2343 28.0134 50.4372 -34.778 -10.6843 0.0960673 -6.94283 -5.80681 -20.1056 -27.8046 -6.8718 -19.6546 61.2948 
